<svg xmlns="http://www.w3.org/2000/svg" id="Layer_2" data-name="Layer 2" viewBox="0 0 262.33 63.07"><defs><style>.cls-1,.cls-2{fill:#476830;stroke-width:0}.cls-2{fill:#bb1e79}</style></defs><g id="Layer_1-2" data-name="Layer 1"><path d="M22.41 0C10.03 0 0 10.03 0 22.41s10.03 22.41 22.41 22.41 22.41-10.03 22.41-22.41S34.78 0 22.41 0zm0 36.91c-8.01 0-14.5-6.49-14.5-14.5s6.49-14.5 14.5-14.5 14.5 6.49 14.5 14.5-6.49 14.5-14.5 14.5z" class="cls-1"/><path d="M22.41 0C10.03 0 0 10.03 0 22.41s10.03 22.41 22.41 22.41 22.41-10.03 22.41-22.41S34.78 0 22.41 0zm0 36.91c-8.01 0-14.5-6.49-14.5-14.5s6.49-14.5 14.5-14.5 14.5 6.49 14.5 14.5-6.49 14.5-14.5 14.5z" class="cls-1"/><path d="M22.39 43.6c-5.83 0-11.05-2.58-14.59-6.67l3.44 18.28 11.08 7.86 11.24-7.86 3.45-18.32c-3.54 4.1-8.78 6.71-14.62 6.71z" class="cls-1"/><path d="M34.34 21.6s-10.92-3.16-10.96 10.89c0 0 10.92 2.13 10.96-10.89zm-23.53 0s10.92-3.16 10.96 10.89c0 0-10.92 2.13-10.96-10.89z" class="cls-2"/><path d="M22.34 11.84s-8.02 8.13.05 12.7c0 0 7.85-3.94-.05-12.7z" class="cls-2"/><path d="M71.6 31.63c0-12.88 9.75-21.57 21.44-21.57 9.38 0 15.63 5.06 15.63 9.69 0 2.63-1.69 4.38-3.88 4.38-2.31 0-4-1.56-4-3.81 0-.94.31-1.75.81-2.25-1.44-1.38-4.44-2.81-8.75-2.81-9 0-15.44 6.94-15.44 16.32s6.94 16.07 14.82 16.07c4.5 0 8.07-1.25 11.25-3.38V36.2H92.54v-4.81h16.51v20.57h-5.44v-3.31c-3.25 2.44-7.13 4.06-12.13 4.06-10.25 0-19.88-7.94-19.88-21.07zm65.95-3.19c0 1.94-1.56 3.63-3.44 3.63s-3.06-1.13-3.56-2.31c-2 .63-4.31 2.88-5.63 5.44v12.25h4.94v4.5h-14.44v-4.5h4.19V29.63h-4.19V25h9.32v6.13c2.13-3.69 5.25-6.63 8.38-6.63 2.94 0 4.44 1.81 4.44 3.94zm1.44 10.07c0-7.57 5.5-14 14.07-14s14.07 6.38 14.07 14-5.56 13.94-14.07 13.94-14.07-6.38-14.07-13.94zm22.57 0c0-5.5-3.5-9.44-8.5-9.44s-8.57 3.94-8.57 9.44 3.5 9.38 8.57 9.38 8.5-3.88 8.5-9.38zm11.07-8.88h-3.94V25h13.07v4.5h-4.06l4.38 15.38 6.94-16.94h3.31l7 16.94 4.38-15.38h-4.5V25h13v4.63h-3.94l-7.07 23.38h-3.38l-7.38-17.51-7.32 17.51h-3.38l-7.13-23.38zm40.93 17.26h5.38V15.88h-5.38v-5.06h16.32v5.06h-5.31v31.01h5.31v5.06h-16.32v-5.06zm23.51 2.18c-.5-1.06-.81-2.44-.81-3.94V29.62h-5.06v-4.63h5.06V18.8l5.38-2.19v8.38h8.19v4.63h-8.19v14.57c0 .88.12 1.5.37 2.06.5.88 1.5 1.31 3.06 1.31s3.56-.75 5.13-1.5l-.56 4.81c-1.56.81-3.56 1.56-6.07 1.56-3 0-5.31-1.06-6.5-3.38zm17.19-.68c0-2.25 1.75-4.13 4-4.13s4.06 1.88 4.06 4.13-1.81 4.06-4.06 4.06-4-1.81-4-4.06zm.57-37.52h6.88l-1.94 29.26h-2.94l-2-29.26zm-196.15 52c-.18 0-.33-.15-.33-.33v-62c0-.18.15-.33.33-.33s.33.15.33.33v62c0 .18-.15.33-.33.33z" class="cls-1"/></g></svg>